<svg width="38" height="38" viewBox="0 0 38 38" fill="none" xmlns="http://www.w3.org/2000/svg">
<path d="M19 38C29.4934 38 38 29.4934 38 19C38 8.50659 29.4934 0 19 0C8.50659 0 0 8.50659 0 19C0 29.4934 8.50659 38 19 38Z" fill="#324A5E"/>
<path d="M6.01227 13.1683V28.3232C6.01227 28.4436 6.11009 28.5339 6.22296 28.5339H31.7695C31.8899 28.5339 31.9802 28.436 31.9802 28.3232V13.1683H6.01227Z" fill="white"/>
<path d="M31.9877 13.3715V10.798C31.9877 10.0681 31.3933 9.47366 30.6634 9.47366H7.33662C6.60672 9.47366 6.01227 10.0681 6.01227 10.798V13.3715H31.9877Z" fill="#4CDBC4"/>
<path d="M21.423 12.3632H8.68358C8.16437 12.3632 7.74298 11.9418 7.74298 11.4226C7.74298 10.9034 8.16437 10.482 8.68358 10.482H21.423C21.9422 10.482 22.3636 10.9034 22.3636 11.4226C22.3636 11.9418 21.9422 12.3632 21.423 12.3632Z" fill="white"/>
<path d="M29.2939 12.4008C29.8258 12.4008 30.257 11.9696 30.257 11.4376C30.257 10.9057 29.8258 10.4745 29.2939 10.4745C28.7619 10.4745 28.3307 10.9057 28.3307 11.4376C28.3307 11.9696 28.7619 12.4008 29.2939 12.4008Z" fill="#2C9984"/>
<path d="M26.5248 12.4008C27.0567 12.4008 27.4879 11.9696 27.4879 11.4376C27.4879 10.9057 27.0567 10.4745 26.5248 10.4745C25.9928 10.4745 25.5616 10.9057 25.5616 11.4376C25.5616 11.9696 25.9928 12.4008 26.5248 12.4008Z" fill="#2C9984"/>
<path d="M8.75132 11.7687H8.56321L8.33746 11.1141H8.52558L8.6535 11.5129L8.78142 11.1141H8.96202L9.08994 11.5129L9.21786 11.1141H9.40598L9.18023 11.7687H8.99212L8.87172 11.4075L8.75132 11.7687Z" fill="#324A5E"/>
<path d="M9.85746 11.7687H9.66935L9.4436 11.1141H9.63172L9.75964 11.5129L9.88756 11.1141H10.0682L10.1961 11.5129L10.324 11.1141H10.5121L10.2864 11.7687H10.0983L9.97786 11.4075L9.85746 11.7687Z" fill="#324A5E"/>
<path d="M10.9561 11.7687H10.768L10.5422 11.1141H10.7304L10.8583 11.5129L10.9862 11.1141H11.1668L11.2947 11.5129L11.4226 11.1141H11.6108L11.385 11.7687H11.1969L11.0765 11.4075L10.9561 11.7687Z" fill="#324A5E"/>
<path d="M9.8424 18.3002H9.15012L8.34497 15.9149H9.03725L9.50378 17.3596L9.97032 15.9149H10.6175L11.084 17.3596L11.5505 15.9149H12.2428L11.4301 18.3077H10.7378L10.3014 17.0059L9.8424 18.3002Z" fill="#ACB3BA"/>
<path d="M13.8531 18.3002H13.1608L12.3481 15.9149H13.0404L13.507 17.3596L13.9735 15.9149H14.6206L15.0872 17.3596L15.5537 15.9149H16.246L15.4333 18.3077H14.741L14.3046 17.0059L13.8531 18.3002Z" fill="#ACB3BA"/>
<path d="M17.8638 18.3002H17.1715L16.3588 15.9149H17.0511L17.5176 17.3596L17.9842 15.9149H18.6313L19.0978 17.3596L19.5644 15.9149H20.2566L19.444 18.3077H18.7517L18.3153 17.0059L17.8638 18.3002Z" fill="#ACB3BA"/>
<path d="M27.9169 25.9303L29.2939 24.5533L27.0365 22.2883L29.0982 20.7834L22.7323 19.3687L24.147 25.7347L25.6594 23.6653L27.9169 25.9303Z" fill="#FF7058"/>
</svg>
