<svg width="22" height="24" viewBox="0 0 22 24" fill="none" xmlns="http://www.w3.org/2000/svg">
<path d="M7.35847 18.6281C7.35847 18.7219 7.25645 18.7969 7.12782 18.7969C6.98145 18.8109 6.87944 18.7359 6.87944 18.6281C6.87944 18.5344 6.98145 18.4594 7.11008 18.4594C7.24315 18.4453 7.35847 18.5203 7.35847 18.6281ZM5.97903 18.4172C5.94798 18.5109 6.03669 18.6187 6.16976 18.6469C6.28508 18.6937 6.41815 18.6469 6.44476 18.5531C6.47137 18.4594 6.3871 18.3516 6.25403 18.3094C6.13871 18.2766 6.01008 18.3234 5.97903 18.4172ZM7.93952 18.3375C7.81089 18.3703 7.72218 18.4594 7.73548 18.5672C7.74879 18.6609 7.86411 18.7219 7.99718 18.6891C8.12581 18.6563 8.21452 18.5672 8.20121 18.4734C8.1879 18.3844 8.06814 18.3234 7.93952 18.3375ZM10.8581 0.375C4.70605 0.375 0 5.31094 0 11.8125C0 17.0109 3.09597 21.4594 7.51814 23.025C8.08589 23.1328 8.28548 22.7625 8.28548 22.4578C8.28548 22.1672 8.27218 20.5641 8.27218 19.5797C8.27218 19.5797 5.16734 20.2828 4.51532 18.1828C4.51532 18.1828 4.00968 16.8187 3.28226 16.4672C3.28226 16.4672 2.26653 15.7312 3.35323 15.7453C3.35323 15.7453 4.45766 15.8391 5.06532 16.9547C6.03669 18.7641 7.66452 18.2438 8.29879 17.9344C8.40081 17.1844 8.68911 16.6641 9.00847 16.3547C6.52903 16.0641 4.02742 15.6844 4.02742 11.175C4.02742 9.88594 4.36452 9.23906 5.07419 8.41406C4.95887 8.10938 4.58185 6.85312 5.18952 5.23125C6.11653 4.92656 8.25 6.49688 8.25 6.49688C9.1371 6.23438 10.0907 6.09844 11.0355 6.09844C11.9802 6.09844 12.9339 6.23438 13.821 6.49688C13.821 6.49688 15.9544 4.92187 16.8815 5.23125C17.4891 6.85781 17.1121 8.10938 16.9968 8.41406C17.7065 9.24375 18.1411 9.89062 18.1411 11.175C18.1411 15.6984 15.5286 16.0594 13.0492 16.3547C13.4573 16.725 13.8032 17.4281 13.8032 18.5297C13.8032 20.1094 13.7899 22.0641 13.7899 22.4484C13.7899 22.7531 13.994 23.1234 14.5573 23.0156C18.9927 21.4594 22 17.0109 22 11.8125C22 5.31094 17.0101 0.375 10.8581 0.375ZM4.31129 16.5422C4.25363 16.5891 4.26694 16.6969 4.34234 16.7859C4.41331 16.8609 4.51532 16.8938 4.57298 16.8328C4.63064 16.7859 4.61734 16.6781 4.54194 16.5891C4.47097 16.5141 4.36895 16.4812 4.31129 16.5422ZM3.83226 16.1625C3.80121 16.2234 3.84556 16.2984 3.93427 16.3453C4.00524 16.3922 4.09395 16.3781 4.125 16.3125C4.15605 16.2516 4.11169 16.1766 4.02298 16.1297C3.93427 16.1016 3.86331 16.1156 3.83226 16.1625ZM5.26935 17.8312C5.19839 17.8922 5.225 18.0328 5.32702 18.1219C5.42903 18.2297 5.55766 18.2438 5.61532 18.1688C5.67298 18.1078 5.64637 17.9672 5.55766 17.8781C5.46008 17.7703 5.32702 17.7562 5.26935 17.8312ZM4.76371 17.1422C4.69274 17.1891 4.69274 17.3109 4.76371 17.4188C4.83468 17.5266 4.95444 17.5734 5.0121 17.5266C5.08306 17.4656 5.08306 17.3438 5.0121 17.2359C4.95 17.1281 4.83468 17.0813 4.76371 17.1422Z" fill="black"/>
</svg>
