<svg width="23" height="24" viewBox="0 0 23 24" fill="none" xmlns="http://www.w3.org/2000/svg">
<g clip-path="url(#clip0)">
<path d="M5.15955 21H0.535127V6.97971H5.15955V21ZM2.84485 5.06721C1.36611 5.06721 0.166687 3.91408 0.166687 2.52189C0.166687 1.85318 0.44885 1.21185 0.951102 0.738991C1.45335 0.266136 2.13456 0.000488281 2.84485 0.000488281C3.55514 0.000488281 4.23634 0.266136 4.73859 0.738991C5.24085 1.21185 5.52301 1.85318 5.52301 2.52189C5.52301 3.91408 4.32309 5.06721 2.84485 5.06721ZM22.4673 21H17.8528V14.175C17.8528 12.5485 17.8179 10.4625 15.4485 10.4625C13.0442 10.4625 12.6757 12.2297 12.6757 14.0578V21H8.05628V6.97971H12.4915V8.89221H12.5562C13.1736 7.79064 14.6817 6.62814 16.9317 6.62814C21.6119 6.62814 22.4722 9.52971 22.4722 13.2985V21H22.4673Z" fill="black"/>
</g>
<defs>
<clipPath id="clip0">
<rect width="22.3056" height="24" fill="white" transform="translate(0.166687)"/>
</clipPath>
</defs>
</svg>
