<svg width="23" height="24" viewBox="0 0 23 24" fill="none" xmlns="http://www.w3.org/2000/svg">
<g clip-path="url(#clip0)">
<path d="M20.2072 7.11169C20.2213 7.32488 20.2213 7.53811 20.2213 7.7513C20.2213 14.2538 15.6215 21.7462 7.21448 21.7462C4.62442 21.7462 2.21838 20.9391 0.194458 19.5381C0.562456 19.5838 0.916252 19.599 1.29841 19.599C3.43552 19.599 5.40285 18.8224 6.97387 17.4975C4.9641 17.4518 3.27986 16.0356 2.69956 14.0863C2.98265 14.132 3.2657 14.1624 3.56295 14.1624C3.97338 14.1624 4.38385 14.1015 4.76596 13.995C2.67129 13.5381 1.10023 11.5584 1.10023 9.16753V9.10664C1.7088 9.47213 2.41652 9.70055 3.16659 9.73097C1.93525 8.8477 1.12855 7.34011 1.12855 5.63452C1.12855 4.72083 1.35496 3.88327 1.75127 3.1523C4.00165 6.13706 7.3843 8.08627 11.1773 8.2995C11.1066 7.93402 11.0641 7.55335 11.0641 7.17263C11.0641 4.46194 13.1022 2.25385 15.6356 2.25385C16.9519 2.25385 18.1407 2.84775 18.9758 3.80714C20.0089 3.59395 20.9997 3.18277 21.8772 2.61933C21.5375 3.76149 20.8157 4.72088 19.8674 5.32997C20.7874 5.22342 21.6791 4.94925 22.4999 4.56858C21.8773 5.54316 21.0988 6.41114 20.2072 7.11169Z" fill="black"/>
</g>
<defs>
<clipPath id="clip0">
<rect width="22.3056" height="24" fill="white" transform="translate(0.194458)"/>
</clipPath>
</defs>
</svg>
